<svg xmlns="http://www.w3.org/2000/svg" viewBox="0 0 460.33 460.33"><defs><style>.cls-1{fill:#fff;}</style></defs><g id="Layer_2" data-name="Layer 2"><g id="Layer_1-2" data-name="Layer 1"><circle class="cls-1" cx="8.83" cy="8.83" r="8.83"/><circle class="cls-1" cx="8.83" cy="36.5" r="8.83"/><circle class="cls-1" cx="8.83" cy="64.17" r="8.83"/><circle class="cls-1" cx="8.83" cy="91.83" r="8.83"/><circle class="cls-1" cx="8.83" cy="119.5" r="8.83"/><circle class="cls-1" cx="8.83" cy="147.17" r="8.83"/><circle class="cls-1" cx="8.83" cy="174.83" r="8.83"/><circle class="cls-1" cx="8.83" cy="202.5" r="8.83"/><circle class="cls-1" cx="8.83" cy="230.17" r="8.83"/><circle class="cls-1" cx="8.83" cy="257.83" r="8.83"/><circle class="cls-1" cx="8.83" cy="285.5" r="8.83"/><circle class="cls-1" cx="8.83" cy="313.17" r="8.83"/><circle class="cls-1" cx="8.83" cy="340.83" r="8.83"/><circle class="cls-1" cx="8.83" cy="368.5" r="8.83"/><circle class="cls-1" cx="8.83" cy="396.17" r="8.83"/><circle class="cls-1" cx="8.83" cy="423.83" r="8.83"/><circle class="cls-1" cx="8.83" cy="451.5" r="8.83"/><circle class="cls-1" cx="36.5" cy="8.83" r="8.83"/><circle class="cls-1" cx="36.5" cy="36.5" r="8.83"/><circle class="cls-1" cx="36.5" cy="64.17" r="8.83"/><circle class="cls-1" cx="36.5" cy="91.83" r="8.83"/><circle class="cls-1" cx="36.5" cy="119.5" r="8.83"/><circle class="cls-1" cx="36.5" cy="147.17" r="8.83"/><circle class="cls-1" cx="36.5" cy="174.83" r="8.83"/><circle class="cls-1" cx="36.5" cy="202.5" r="8.83"/><circle class="cls-1" cx="36.5" cy="230.17" r="8.83"/><circle class="cls-1" cx="36.5" cy="257.83" r="8.83"/><circle class="cls-1" cx="36.5" cy="285.5" r="8.83"/><circle class="cls-1" cx="36.5" cy="313.17" r="8.83"/><circle class="cls-1" cx="36.5" cy="340.83" r="8.83"/><circle class="cls-1" cx="36.5" cy="368.5" r="8.83"/><circle class="cls-1" cx="36.5" cy="396.17" r="8.83"/><circle class="cls-1" cx="36.5" cy="423.83" r="8.83"/><circle class="cls-1" cx="36.5" cy="451.5" r="8.83"/><circle class="cls-1" cx="64.17" cy="8.83" r="8.83"/><circle class="cls-1" cx="64.17" cy="36.5" r="8.83"/><circle class="cls-1" cx="64.17" cy="64.17" r="8.83"/><circle class="cls-1" cx="64.17" cy="91.83" r="8.83"/><circle class="cls-1" cx="64.17" cy="119.5" r="8.83"/><circle class="cls-1" cx="64.17" cy="147.17" r="8.83"/><circle class="cls-1" cx="64.17" cy="174.83" r="8.83"/><circle class="cls-1" cx="64.17" cy="202.5" r="8.83"/><circle class="cls-1" cx="64.17" cy="230.17" r="8.83"/><circle class="cls-1" cx="64.17" cy="257.83" r="8.83"/><circle class="cls-1" cx="64.17" cy="285.5" r="8.83"/><circle class="cls-1" cx="64.17" cy="313.17" r="8.83"/><circle class="cls-1" cx="64.17" cy="340.83" r="8.83"/><circle class="cls-1" cx="64.17" cy="368.5" r="8.83"/><circle class="cls-1" cx="64.17" cy="396.17" r="8.83"/><circle class="cls-1" cx="64.17" cy="423.83" r="8.83"/><circle class="cls-1" cx="64.17" cy="451.5" r="8.83"/><circle class="cls-1" cx="91.83" cy="8.83" r="8.83"/><circle class="cls-1" cx="91.83" cy="36.5" r="8.83"/><circle class="cls-1" cx="91.83" cy="64.17" r="8.83"/><circle class="cls-1" cx="91.83" cy="91.83" r="8.83"/><circle class="cls-1" cx="91.83" cy="119.5" r="8.83"/><circle class="cls-1" cx="91.83" cy="147.17" r="8.83"/><circle class="cls-1" cx="91.83" cy="174.83" r="8.83"/><circle class="cls-1" cx="91.83" cy="202.5" r="8.83"/><circle class="cls-1" cx="91.83" cy="230.17" r="8.83"/><circle class="cls-1" cx="91.83" cy="257.83" r="8.83"/><circle class="cls-1" cx="91.83" cy="285.5" r="8.83"/><circle class="cls-1" cx="91.83" cy="313.17" r="8.83"/><circle class="cls-1" cx="91.83" cy="340.83" r="8.83"/><circle class="cls-1" cx="91.83" cy="368.5" r="8.83"/><circle class="cls-1" cx="91.83" cy="396.17" r="8.83"/><circle class="cls-1" cx="91.83" cy="423.83" r="8.83"/><circle class="cls-1" cx="91.83" cy="451.5" r="8.83"/><circle class="cls-1" cx="119.5" cy="8.83" r="8.83"/><circle class="cls-1" cx="119.5" cy="36.5" r="8.83"/><circle class="cls-1" cx="119.5" cy="64.17" r="8.83"/><circle class="cls-1" cx="119.5" cy="91.83" r="8.83"/><circle class="cls-1" cx="119.5" cy="119.5" r="8.83"/><circle class="cls-1" cx="119.5" cy="147.17" r="8.83"/><circle class="cls-1" cx="119.5" cy="174.83" r="8.83"/><circle class="cls-1" cx="119.5" cy="202.5" r="8.83"/><circle class="cls-1" cx="119.5" cy="230.17" r="8.83"/><circle class="cls-1" cx="119.5" cy="257.83" r="8.83"/><circle class="cls-1" cx="119.5" cy="285.5" r="8.83"/><circle class="cls-1" cx="119.5" cy="313.17" r="8.83"/><circle class="cls-1" cx="119.5" cy="340.83" r="8.83"/><circle class="cls-1" cx="119.5" cy="368.5" r="8.83"/><circle class="cls-1" cx="119.5" cy="396.17" r="8.83"/><circle class="cls-1" cx="119.5" cy="423.83" r="8.83"/><circle class="cls-1" cx="119.5" cy="451.5" r="8.83"/><circle class="cls-1" cx="147.17" cy="8.83" r="8.83"/><circle class="cls-1" cx="147.17" cy="36.5" r="8.83"/><circle class="cls-1" cx="147.17" cy="64.17" r="8.83"/><circle class="cls-1" cx="147.17" cy="91.83" r="8.83"/><circle class="cls-1" cx="147.17" cy="119.5" r="8.83"/><circle class="cls-1" cx="147.17" cy="147.17" r="8.83"/><circle class="cls-1" cx="147.17" cy="174.83" r="8.83"/><circle class="cls-1" cx="147.17" cy="202.5" r="8.83"/><circle class="cls-1" cx="147.17" cy="230.17" r="8.83"/><circle class="cls-1" cx="147.17" cy="257.83" r="8.83"/><circle class="cls-1" cx="147.17" cy="285.5" r="8.83"/><circle class="cls-1" cx="147.17" cy="313.17" r="8.83"/><circle class="cls-1" cx="147.17" cy="340.83" r="8.83"/><circle class="cls-1" cx="147.17" cy="368.5" r="8.83"/><circle class="cls-1" cx="147.17" cy="396.17" r="8.83"/><circle class="cls-1" cx="147.17" cy="423.83" r="8.83"/><circle class="cls-1" cx="147.17" cy="451.5" r="8.83"/><circle class="cls-1" cx="174.83" cy="8.83" r="8.83"/><circle class="cls-1" cx="174.83" cy="36.5" r="8.83"/><circle class="cls-1" cx="174.83" cy="64.17" r="8.83"/><circle class="cls-1" cx="174.83" cy="91.83" r="8.83"/><circle class="cls-1" cx="174.83" cy="119.5" r="8.83"/><circle class="cls-1" cx="174.83" cy="147.17" r="8.83"/><circle class="cls-1" cx="174.83" cy="174.83" r="8.83"/><circle class="cls-1" cx="174.83" cy="202.5" r="8.83"/><circle class="cls-1" cx="174.83" cy="230.17" r="8.83"/><circle class="cls-1" cx="174.83" cy="257.83" r="8.83"/><circle class="cls-1" cx="174.83" cy="285.5" r="8.83"/><circle class="cls-1" cx="174.83" cy="313.17" r="8.83"/><circle class="cls-1" cx="174.83" cy="340.83" r="8.83"/><circle class="cls-1" cx="174.83" cy="368.5" r="8.83"/><circle class="cls-1" cx="174.83" cy="396.17" r="8.83"/><circle class="cls-1" cx="174.83" cy="423.83" r="8.83"/><circle class="cls-1" cx="174.83" cy="451.5" r="8.83"/><circle class="cls-1" cx="202.5" cy="8.83" r="8.83"/><circle class="cls-1" cx="202.5" cy="36.5" r="8.83"/><circle class="cls-1" cx="202.5" cy="64.17" r="8.83"/><circle class="cls-1" cx="202.5" cy="91.83" r="8.83"/><circle class="cls-1" cx="202.5" cy="119.5" r="8.83"/><circle class="cls-1" cx="202.5" cy="147.17" r="8.83"/><circle class="cls-1" cx="202.5" cy="174.83" r="8.83"/><circle class="cls-1" cx="202.5" cy="202.5" r="8.83"/><circle class="cls-1" cx="202.5" cy="230.17" r="8.83"/><circle class="cls-1" cx="202.5" cy="257.83" r="8.83"/><circle class="cls-1" cx="202.5" cy="285.5" r="8.83"/><circle class="cls-1" cx="202.5" cy="313.17" r="8.83"/><circle class="cls-1" cx="202.5" cy="340.83" r="8.83"/><circle class="cls-1" cx="202.5" cy="368.5" r="8.83"/><circle class="cls-1" cx="202.5" cy="396.17" r="8.83"/><circle class="cls-1" cx="202.5" cy="423.83" r="8.83"/><circle class="cls-1" cx="202.5" cy="451.5" r="8.83"/><circle class="cls-1" cx="230.17" cy="8.83" r="8.83"/><circle class="cls-1" cx="230.17" cy="36.5" r="8.83"/><circle class="cls-1" cx="230.17" cy="64.17" r="8.83"/><circle class="cls-1" cx="230.17" cy="91.83" r="8.83"/><circle class="cls-1" cx="230.17" cy="119.5" r="8.83"/><circle class="cls-1" cx="230.17" cy="147.17" r="8.83"/><circle class="cls-1" cx="230.17" cy="174.83" r="8.83"/><circle class="cls-1" cx="230.17" cy="202.5" r="8.83"/><circle class="cls-1" cx="230.17" cy="230.17" r="8.83"/><circle class="cls-1" cx="230.17" cy="257.83" r="8.83"/><circle class="cls-1" cx="230.17" cy="285.5" r="8.83"/><circle class="cls-1" cx="230.17" cy="313.17" r="8.83"/><circle class="cls-1" cx="230.17" cy="340.83" r="8.83"/><circle class="cls-1" cx="230.17" cy="368.5" r="8.83"/><circle class="cls-1" cx="230.17" cy="396.17" r="8.83"/><circle class="cls-1" cx="230.17" cy="423.83" r="8.83"/><circle class="cls-1" cx="230.17" cy="451.5" r="8.83"/><circle class="cls-1" cx="257.83" cy="8.83" r="8.83"/><circle class="cls-1" cx="257.83" cy="36.5" r="8.83"/><circle class="cls-1" cx="257.83" cy="64.17" r="8.83"/><circle class="cls-1" cx="257.83" cy="91.83" r="8.83"/><circle class="cls-1" cx="257.83" cy="119.5" r="8.83"/><circle class="cls-1" cx="257.83" cy="147.17" r="8.83"/><circle class="cls-1" cx="257.83" cy="174.83" r="8.83"/><circle class="cls-1" cx="257.83" cy="202.5" r="8.83"/><circle class="cls-1" cx="257.83" cy="230.17" r="8.83"/><circle class="cls-1" cx="257.83" cy="257.83" r="8.83"/><circle class="cls-1" cx="257.83" cy="285.5" r="8.83"/><circle class="cls-1" cx="257.83" cy="313.17" r="8.83"/><circle class="cls-1" cx="257.83" cy="340.83" r="8.83"/><circle class="cls-1" cx="257.83" cy="368.5" r="8.83"/><circle class="cls-1" cx="257.83" cy="396.17" r="8.83"/><circle class="cls-1" cx="257.83" cy="423.83" r="8.83"/><circle class="cls-1" cx="257.83" cy="451.5" r="8.83"/><circle class="cls-1" cx="285.5" cy="8.83" r="8.83"/><circle class="cls-1" cx="285.5" cy="36.5" r="8.83"/><circle class="cls-1" cx="285.5" cy="64.17" r="8.83"/><circle class="cls-1" cx="285.5" cy="91.83" r="8.83"/><circle class="cls-1" cx="285.5" cy="119.5" r="8.83"/><circle class="cls-1" cx="285.5" cy="147.17" r="8.83"/><circle class="cls-1" cx="285.5" cy="174.83" r="8.83"/><circle class="cls-1" cx="285.5" cy="202.5" r="8.83"/><circle class="cls-1" cx="285.5" cy="230.17" r="8.83"/><circle class="cls-1" cx="285.5" cy="257.83" r="8.83"/><circle class="cls-1" cx="285.5" cy="285.5" r="8.83"/><circle class="cls-1" cx="285.5" cy="313.17" r="8.83"/><circle class="cls-1" cx="285.5" cy="340.83" r="8.83"/><circle class="cls-1" cx="285.5" cy="368.5" r="8.83"/><circle class="cls-1" cx="285.5" cy="396.17" r="8.83"/><circle class="cls-1" cx="285.5" cy="423.83" r="8.83"/><circle class="cls-1" cx="285.5" cy="451.5" r="8.83"/><circle class="cls-1" cx="313.17" cy="8.83" r="8.83"/><circle class="cls-1" cx="313.17" cy="36.5" r="8.83"/><circle class="cls-1" cx="313.17" cy="64.17" r="8.83"/><circle class="cls-1" cx="313.17" cy="91.83" r="8.83"/><circle class="cls-1" cx="313.17" cy="119.5" r="8.83"/><circle class="cls-1" cx="313.17" cy="147.17" r="8.83"/><circle class="cls-1" cx="313.17" cy="174.83" r="8.83"/><circle class="cls-1" cx="313.17" cy="202.5" r="8.83"/><circle class="cls-1" cx="313.17" cy="230.17" r="8.83"/><circle class="cls-1" cx="313.17" cy="257.83" r="8.83"/><circle class="cls-1" cx="313.17" cy="285.5" r="8.83"/><circle class="cls-1" cx="313.17" cy="313.17" r="8.83"/><circle class="cls-1" cx="313.17" cy="340.83" r="8.83"/><circle class="cls-1" cx="313.17" cy="368.5" r="8.83"/><circle class="cls-1" cx="313.17" cy="396.17" r="8.83"/><circle class="cls-1" cx="313.17" cy="423.83" r="8.83"/><circle class="cls-1" cx="313.17" cy="451.5" r="8.83"/><circle class="cls-1" cx="340.83" cy="8.83" r="8.83"/><circle class="cls-1" cx="340.83" cy="36.5" r="8.83"/><circle class="cls-1" cx="340.83" cy="64.17" r="8.83"/><circle class="cls-1" cx="340.83" cy="91.83" r="8.83"/><circle class="cls-1" cx="340.83" cy="119.5" r="8.83"/><circle class="cls-1" cx="340.83" cy="147.17" r="8.83"/><circle class="cls-1" cx="340.83" cy="174.83" r="8.83"/><circle class="cls-1" cx="340.83" cy="202.5" r="8.83"/><circle class="cls-1" cx="340.83" cy="230.17" r="8.83"/><circle class="cls-1" cx="340.83" cy="257.83" r="8.83"/><circle class="cls-1" cx="340.83" cy="285.5" r="8.83"/><circle class="cls-1" cx="340.83" cy="313.17" r="8.83"/><circle class="cls-1" cx="340.83" cy="340.83" r="8.83"/><circle class="cls-1" cx="340.83" cy="368.5" r="8.83"/><circle class="cls-1" cx="340.83" cy="396.17" r="8.83"/><circle class="cls-1" cx="340.83" cy="423.83" r="8.83"/><circle class="cls-1" cx="340.83" cy="451.5" r="8.83"/><circle class="cls-1" cx="368.5" cy="8.83" r="8.83"/><circle class="cls-1" cx="368.5" cy="36.5" r="8.83"/><circle class="cls-1" cx="368.5" cy="64.17" r="8.83"/><circle class="cls-1" cx="368.5" cy="91.83" r="8.83"/><circle class="cls-1" cx="368.5" cy="119.5" r="8.83"/><circle class="cls-1" cx="368.5" cy="147.17" r="8.83"/><circle class="cls-1" cx="368.5" cy="174.83" r="8.83"/><circle class="cls-1" cx="368.5" cy="202.5" r="8.83"/><circle class="cls-1" cx="368.5" cy="230.17" r="8.83"/><circle class="cls-1" cx="368.5" cy="257.83" r="8.83"/><circle class="cls-1" cx="368.5" cy="285.5" r="8.83"/><circle class="cls-1" cx="368.5" cy="313.17" r="8.83"/><circle class="cls-1" cx="368.5" cy="340.83" r="8.83"/><circle class="cls-1" cx="368.5" cy="368.5" r="8.83"/><circle class="cls-1" cx="368.5" cy="396.17" r="8.83"/><circle class="cls-1" cx="368.5" cy="423.83" r="8.83"/><circle class="cls-1" cx="368.5" cy="451.5" r="8.83"/><circle class="cls-1" cx="396.17" cy="8.83" r="8.83"/><circle class="cls-1" cx="396.17" cy="36.5" r="8.83"/><circle class="cls-1" cx="396.17" cy="64.17" r="8.83"/><circle class="cls-1" cx="396.17" cy="91.83" r="8.83"/><circle class="cls-1" cx="396.17" cy="119.5" r="8.83"/><circle class="cls-1" cx="396.17" cy="147.17" r="8.83"/><circle class="cls-1" cx="396.17" cy="174.83" r="8.83"/><circle class="cls-1" cx="396.17" cy="202.5" r="8.83"/><circle class="cls-1" cx="396.17" cy="230.17" r="8.83"/><circle class="cls-1" cx="396.17" cy="257.83" r="8.83"/><circle class="cls-1" cx="396.17" cy="285.5" r="8.83"/><circle class="cls-1" cx="396.17" cy="313.17" r="8.83"/><circle class="cls-1" cx="396.17" cy="340.83" r="8.83"/><circle class="cls-1" cx="396.17" cy="368.5" r="8.83"/><circle class="cls-1" cx="396.17" cy="396.17" r="8.83"/><circle class="cls-1" cx="396.17" cy="423.83" r="8.83"/><circle class="cls-1" cx="396.17" cy="451.5" r="8.83"/><circle class="cls-1" cx="423.83" cy="8.83" r="8.83"/><circle class="cls-1" cx="423.83" cy="36.5" r="8.83"/><circle class="cls-1" cx="423.83" cy="64.17" r="8.83"/><circle class="cls-1" cx="423.83" cy="91.83" r="8.83"/><circle class="cls-1" cx="423.83" cy="119.5" r="8.83"/><circle class="cls-1" cx="423.83" cy="147.17" r="8.83"/><circle class="cls-1" cx="423.83" cy="174.83" r="8.83"/><circle class="cls-1" cx="423.83" cy="202.5" r="8.83"/><circle class="cls-1" cx="423.83" cy="230.17" r="8.83"/><circle class="cls-1" cx="423.83" cy="257.83" r="8.83"/><circle class="cls-1" cx="423.83" cy="285.5" r="8.83"/><circle class="cls-1" cx="423.83" cy="313.17" r="8.83"/><circle class="cls-1" cx="423.83" cy="340.83" r="8.83"/><circle class="cls-1" cx="423.83" cy="368.5" r="8.83"/><circle class="cls-1" cx="423.83" cy="396.17" r="8.83"/><circle class="cls-1" cx="423.83" cy="423.83" r="8.83"/><circle class="cls-1" cx="423.83" cy="451.5" r="8.83"/><circle class="cls-1" cx="451.5" cy="8.83" r="8.83"/><circle class="cls-1" cx="451.5" cy="36.5" r="8.83"/><circle class="cls-1" cx="451.5" cy="64.17" r="8.83"/><circle class="cls-1" cx="451.5" cy="91.83" r="8.83"/><circle class="cls-1" cx="451.5" cy="119.5" r="8.83"/><circle class="cls-1" cx="451.5" cy="147.17" r="8.83"/><circle class="cls-1" cx="451.5" cy="174.83" r="8.83"/><circle class="cls-1" cx="451.5" cy="202.5" r="8.83"/><circle class="cls-1" cx="451.5" cy="230.17" r="8.83"/><circle class="cls-1" cx="451.5" cy="257.83" r="8.83"/><circle class="cls-1" cx="451.5" cy="285.5" r="8.83"/><circle class="cls-1" cx="451.5" cy="313.17" r="8.83"/><circle class="cls-1" cx="451.5" cy="340.83" r="8.83"/><circle class="cls-1" cx="451.5" cy="368.5" r="8.83"/><circle class="cls-1" cx="451.5" cy="396.17" r="8.83"/><circle class="cls-1" cx="451.5" cy="423.83" r="8.83"/><circle class="cls-1" cx="451.5" cy="451.5" r="8.83"/></g></g></svg>